<svg id="visual" viewBox="0 0 900 450" width="900" height="450" xmlns="http://www.w3.org/2000/svg" xmlns:xlink="http://www.w3.org/1999/xlink" version="1.1"><path d="M0 91L90 105L180 78L270 114L360 91L450 82L540 64L630 73L720 132L810 136L900 105L900 0L810 0L720 0L630 0L540 0L450 0L360 0L270 0L180 0L90 0L0 0Z" fill="#2c264e"></path><path d="M0 145L90 168L180 154L270 190L360 172L450 123L540 136L630 145L720 204L810 217L900 172L900 103L810 134L720 130L630 71L540 62L450 80L360 89L270 112L180 76L90 103L0 89Z" fill="#2a2445"></path><path d="M0 181L90 213L180 181L270 213L360 217L450 163L540 168L630 181L720 226L810 244L900 208L900 170L810 215L720 202L630 143L540 134L450 121L360 170L270 188L180 152L90 166L0 143Z" fill="#28233d"></path><path d="M0 222L90 244L180 213L270 244L360 249L450 186L540 217L630 222L720 267L810 276L900 253L900 206L810 242L720 224L630 179L540 166L450 161L360 215L270 211L180 179L90 211L0 179Z" fill="#252134"></path><path d="M0 348L90 361L180 334L270 316L360 379L450 321L540 330L630 357L720 334L810 343L900 325L900 251L810 274L720 265L630 220L540 215L450 184L360 247L270 242L180 211L90 242L0 220Z" fill="#221f2b"></path><path d="M0 411L90 406L180 411L270 388L360 424L450 388L540 393L630 420L720 397L810 420L900 393L900 323L810 341L720 332L630 355L540 328L450 319L360 377L270 314L180 332L90 359L0 346Z" fill="#1f1d23"></path><path d="M0 451L90 451L180 451L270 451L360 451L450 451L540 451L630 451L720 451L810 451L900 451L900 391L810 418L720 395L630 418L540 391L450 386L360 422L270 386L180 409L90 404L0 409Z" fill="#1b1b1b"></path></svg>