<svg width="331" height="346" viewBox="0 0 331 346" fill="none" xmlns="http://www.w3.org/2000/svg">
    <g filter="url(#filter0_d_135_541)">
        <path d="M166.192 17.6692C165.758 17.4436 165.242 17.4436 164.808 17.6692L93.6855 54.6529L93.6653 54.6635L23.1927 92.6798C22.7115 92.9394 22.4096 93.4403 22.4049 93.987L21.7551 168.987V169.013L22.4049 244.013C22.4096 244.56 22.7115 245.061 23.1927 245.32L93.6653 283.336L93.6855 283.347L164.808 320.331C165.242 320.556 165.758 320.556 166.192 320.331L237.315 283.347L237.335 283.336L307.807 245.32C308.289 245.061 308.59 244.56 308.595 244.013L309.245 169.013V168.987L308.595 93.987C308.59 93.4403 308.289 92.9394 307.807 92.6798L237.335 54.6635L237.315 54.6529L166.192 17.6692Z" fill="#B5B6B5"/>
        <path d="M166.192 17.6692C165.758 17.4436 165.242 17.4436 164.808 17.6692L93.6855 54.6529L93.6653 54.6635L23.1927 92.6798C22.7115 92.9394 22.4096 93.4403 22.4049 93.987L21.7551 168.987V169.013L22.4049 244.013C22.4096 244.56 22.7115 245.061 23.1927 245.32L93.6653 283.336L93.6855 283.347L164.808 320.331C165.242 320.556 165.758 320.556 166.192 320.331L237.315 283.347L237.335 283.336L307.807 245.32C308.289 245.061 308.59 244.56 308.595 244.013L309.245 169.013V168.987L308.595 93.987C308.59 93.4403 308.289 92.9394 307.807 92.6798L237.335 54.6635L237.315 54.6529L166.192 17.6692Z" fill="black" fill-opacity="0.2"/>
        <path d="M166.192 17.6692C165.758 17.4436 165.242 17.4436 164.808 17.6692L93.6855 54.6529L93.6653 54.6635L23.1927 92.6798C22.7115 92.9394 22.4096 93.4403 22.4049 93.987L21.7551 168.987V169.013L22.4049 244.013C22.4096 244.56 22.7115 245.061 23.1927 245.32L93.6653 283.336L93.6855 283.347L164.808 320.331C165.242 320.556 165.758 320.556 166.192 320.331L237.315 283.347L237.335 283.336L307.807 245.32C308.289 245.061 308.59 244.56 308.595 244.013L309.245 169.013V168.987L308.595 93.987C308.59 93.4403 308.289 92.9394 307.807 92.6798L237.335 54.6635L237.315 54.6529L166.192 17.6692Z" stroke="#B2B5B1" stroke-width="3" stroke-linejoin="round"/>
    </g>
    <path d="M165.691 69.6687C165.258 69.4438 164.742 69.4438 164.309 69.6687L117.764 93.8314L117.744 93.842L71.6241 118.679C71.1423 118.939 70.8401 119.44 70.8353 119.987L70.4101 168.987V169.013L70.8353 218.013C70.8401 218.56 71.1423 219.061 71.6241 219.321L117.744 244.158L117.764 244.169L164.309 268.331C164.742 268.556 165.258 268.556 165.691 268.331L212.236 244.169L212.256 244.158L258.376 219.321C258.858 219.061 259.16 218.56 259.165 218.013L259.59 169.013V168.987L259.165 119.987C259.16 119.44 258.858 118.939 258.376 118.679L212.256 93.842L212.236 93.8314L165.691 69.6687Z" fill="#3A3A3A" stroke="#717171" stroke-width="3" stroke-linejoin="round"/>
    <path d="M165.691 108.669C165.258 108.444 164.742 108.444 164.309 108.669L136.034 123.339L136.014 123.349L107.997 138.429C107.516 138.689 107.213 139.19 107.208 139.737L106.95 169.487V169.513L107.208 199.263C107.213 199.81 107.516 200.311 107.997 200.571L136.014 215.651L136.034 215.661L164.309 230.331C164.742 230.556 165.258 230.556 165.691 230.331L193.966 215.661L193.986 215.651L222.003 200.571C222.484 200.311 222.787 199.81 222.792 199.263L223.05 169.513V169.487L222.792 139.737C222.787 139.19 222.484 138.689 222.003 138.429L193.986 123.349L193.966 123.339L165.691 108.669Z" fill="" stroke="white" stroke-width="3" stroke-linejoin="round"/>
    <line x1="164.5" y1="171" x2="164.5" y2="231" stroke="white" stroke-width="3"/>
    <line x1="106.74" y1="138.695" x2="166.74" y2="172.695" stroke="white" stroke-width="3"/>
    <path d="M221.707 138L164 172.292" stroke="white" stroke-width="3"/>
    <line x1="307.297" y1="244.325" x2="258.297" y2="218.325" stroke="white" stroke-width="3"/>
    <line x1="307.724" y1="93.3138" x2="258.724" y2="120.314" stroke="white" stroke-width="3"/>
    <line x1="165.5" y1="18" x2="165.5" y2="69" stroke="white" stroke-width="3"/>
    <line x1="23.7261" y1="93.6874" x2="70.7261" y2="119.687" stroke="white" stroke-width="3"/>
    <line x1="22.2761" y1="244.686" x2="71.2761" y2="217.686" stroke="white" stroke-width="3"/>
    <line x1="165.5" y1="268" x2="165.5" y2="319" stroke="white" stroke-width="3"/>
    <defs>
        <filter id="filter0_d_135_541" x="-18" y="0" width="367" height="346" filterUnits="userSpaceOnUse" color-interpolation-filters="sRGB">
            <feFlood flood-opacity="0" result="BackgroundImageFix"/>
            <feColorMatrix in="SourceAlpha" type="matrix" values="0 0 0 0 0 0 0 0 0 0 0 0 0 0 0 0 0 0 127 0" result="hardAlpha"/>
            <feOffset dy="4"/>
            <feGaussianBlur stdDeviation="10"/>
            <feComposite in2="hardAlpha" operator="out"/>
            <feColorMatrix type="matrix" values="0 0 0 0 1 0 0 0 0 1 0 0 0 0 1 0 0 0 1 0"/>
            <feBlend mode="normal" in2="BackgroundImageFix" result="effect1_dropShadow_135_541"/>
            <feBlend mode="normal" in="SourceGraphic" in2="effect1_dropShadow_135_541" result="shape"/>
        </filter>
    </defs>
</svg>
