<svg fill="" xmlns="http://www.w3.org/2000/svg" xmlns:xlink="http://www.w3.org/1999/xlink" xmlns:svgjs="http://svgjs.com/svgjs" version="1.1" width="512" height="512" x="0" y="0" viewBox="0 0 512 512" style="enable-background:new 0 0 512 512" xml:space="preserve" class=""><g><path fill="#b1b1b1" d="M471.207 377.779V134.22a4.281 4.281 0 0 0-2.139-3.706L258.139 8.735a4.28 4.28 0 0 0-4.279 0L42.932 130.515a4.278 4.278 0 0 0-2.139 3.706V377.78c0 1.529.816 2.941 2.139 3.706l210.928 121.78a4.28 4.28 0 0 0 4.279 0l210.928-121.78a4.28 4.28 0 0 0 2.14-3.707z" data-original="#00e499" class=""/><path fill="#6d6d6d" d="M469.068 130.515 258.139 8.735a4.28 4.28 0 0 0-4.279 0l-18.319 10.577L428.15 130.515a4.278 4.278 0 0 1 2.139 3.705v243.559a4.281 4.281 0 0 1-2.139 3.706L235.541 492.688l18.319 10.577a4.28 4.28 0 0 0 4.279 0l210.929-121.78a4.278 4.278 0 0 0 2.139-3.706V134.22a4.276 4.276 0 0 0-2.139-3.705z" data-original="#00d38e" class=""/><path d="M474.958 125.255 259.75 1.005a7.499 7.499 0 0 0-7.5 0l-63.52 36.673a7.5 7.5 0 0 0 7.5 12.99L256 16.16l207.708 119.92v239.84L329.334 453.5a7.5 7.5 0 0 0 7.5 12.99l138.123-79.745a7.5 7.5 0 0 0 3.75-6.495v-248.5a7.497 7.497 0 0 0-3.749-6.495zM304.082 468.08 256 495.84 48.292 375.92V136.08l122.685-70.832a7.5 7.5 0 0 0-7.5-12.99L37.042 125.255a7.5 7.5 0 0 0-3.75 6.495v248.5a7.5 7.5 0 0 0 3.75 6.495l215.207 124.25a7.493 7.493 0 0 0 7.5 0l51.832-29.925a7.5 7.5 0 0 0-7.499-12.99z" fill="#000000" data-original="#000000"/></g></svg>