<svg xmlns="http://www.w3.org/2000/svg" xmlns:xlink="http://www.w3.org/1999/xlink" xmlns:svgjs="http://svgjs.com/svgjs" version="1.1" width="512" height="512" x="0" y="0" viewBox="0 0 512 512" style="enable-background:new 0 0 512 512" xml:space="preserve" class=""><g><linearGradient id="a" x1="337.597" x2="156.289" y1="89.494" y2="459.361" gradientUnits="userSpaceOnUse"><stop stop-opacity="0.85" stop-color="#617B24" offset="0"/>
    <stop stop-opacity="0.55" stop-color="#678126" offset="0.33"/>
    <stop stop-opacity="0.59" stop-color="#6E811F" offset="0.6486486486486487"/>
    <stop stop-opacity="0.64" stop-color="#95AF2A" offset="0.934"/>
    <stop stop-opacity="0.67" stop-color="#3dae2b" offset="1"/>
</linearGradient>
    <linearGradient id="b" x1="225.787" x2="733.809" y1="282.815" y2="-92.539" gradientUnits="userSpaceOnUse">
        <stop stop-opacity="0.63" stop-color="#617B24" offset="0.138"/>
        <stop stop-opacity="0.66" stop-color="#91A94E" offset="0.402"/>
        <stop stop-opacity="0.65" stop-color="#64b749" offset="0.713"/>
        <stop stop-opacity="0.73" stop-color="#6abf4b" offset="0.908"/>
    </linearGradient>
    <linearGradient id="c" x1="24.028" x2="487.275" y1="255.987" y2="255.987" gradientUnits="userSpaceOnUse">
        <stop stop-opacity="0.68" stop-color="#9CBF51" offset="0.092"/>
        <stop stop-opacity="0.58" stop-color="#9CBF51" offset="0.21621621621621623"/>
        <stop stop-opacity="0.66" stop-color="#8EB762" offset="0.36293436293436293"/>
        <stop stop-opacity="0.64" stop-color="#89AE52" offset="0.598"/>
        <stop stop-opacity="0.69" stop-color="#617B24" offset="0.862"/>
    </linearGradient>
    <path fill="url(#a)" fill-rule="evenodd" d="M268.14 3.246a24.233 24.233 0 0 0-24.231 0L43.22 119.058a24.226 24.226 0 0 0-12.125 20.994v231.802c0 8.659 4.62 16.657 12.117 20.994L243.9 508.752a24.253 24.253 0 0 0 24.247 0l200.642-115.905a24.258 24.258 0 0 0 12.115-20.994v-231.81c0-8.659-4.62-16.657-12.123-20.986z" clip-rule="evenodd" data-original="url(#a)"/>
    <path fill="url(#b)" d="M469.18 119.058 267.93 3.246c-1.985-1.147-4.112-1.968-6.299-2.507L36.08 386.577c1.935 2.865 3.818 4.803 6.355 6.271l201.592 115.905c5.71 3.296 12.496 4.067 18.723 2.346L474.577 123.21a26.411 26.411 0 0 0-5.397-4.152z" data-original="url(#b)"/>
    <path fill="url(#c)" d="M469.293 392.848c5.848-3.384 9.989-9.312 11.148-16.265L261.631.739c-5.761-1.147-12.959-.486-18.143 2.507L43.59 118.361l215.947 393.404c3.082-.42 6.1-1.417 8.863-3.012z" data-original="url(#c)" class=""/></g></svg>